<svg xmlns="http://www.w3.org/2000/svg" viewBox="0 0 128 128"><path fill="#439934" fill-rule="evenodd" d="M88.04 42.81a57.17 57.17 0 0 1 3.14 14.3 63.1 63.1 0 0 1-1.03 18.14c-.04.17-.1.32-.16.48-.4 0-.82-.05-1.21.01l-9.98 1.6c-3.44.56-6.88 1.1-10.32 1.7-1.21.2-2.72-.05-3.2 1.63-.02.05-.16.06-.24.08l.16-10.05-.17-24.25 1.6-.27c2.63-.43 5.25-.87 7.87-1.28l9.39-1.47 4.15-.62z" clip-rule="evenodd"/><path fill="#45A538" fill-rule="evenodd" d="M61.73 110.05c-1.7-1.45-3.44-2.84-5.06-4.37-8.72-8.22-15.1-17.9-18.23-29.56a47.84 47.84 0 0 1-1.63-9.8c-.13-2.32-.32-4.66-.15-6.97a81.96 81.96 0 0 1 3.12-18.15l.1-.13c.18.23.43.43.52.7 1.76 5.18 3.5 10.36 5.24 15.55 5.46 16.3 10.9 32.6 16.38 48.9.1.32.38.58.58.86l-.87 2.97z" clip-rule="evenodd"/><path fill="#46A037" fill-rule="evenodd" d="M88.04 42.81c-1.39.2-2.77.4-4.15.62l-9.4 1.46-7.85 1.28-1.6.28-.02-1.05c-.05-.86-.14-1.71-.15-2.57l-.18-16.44a1174.75 1174.75 0 0 0-.36-16.67c-.06-1.14-.24-2.28-.31-3.42-.05-.66.01-1.32.02-1.98.82 1.58 1.62 3.18 2.46 4.75 1.33 2.48 3.44 4.31 5.34 6.3a70.39 70.39 0 0 1 16.2 27.44z" clip-rule="evenodd"/><path fill="#409433" fill-rule="evenodd" d="M65.04 80.75c.08-.02.22-.03.23-.08.5-1.68 2-1.43 3.21-1.64 3.44-.6 6.88-1.13 10.32-1.69 3.32-.53 6.65-1.08 9.98-1.6.4-.06.8-.01 1.2-.01-.62 2.22-1.1 4.49-1.9 6.65a74.16 74.16 0 0 1-3.13 7.18 49.14 49.14 0 0 1-6.35 9.76 89.96 89.96 0 0 1-6.2 6.55c-1.19 1.16-2.58 2.11-3.88 3.16l-.34-.23-1.22-1.04-1.25-2.75a41.4 41.4 0 0 1-1.4-9.84l.03-.56.17-2.43c.06-.82.13-1.65.17-2.48.13-2.98.24-5.96.36-8.95z" clip-rule="evenodd"/><path fill="#4FAA41" fill-rule="evenodd" d="M65.04 80.75c-.12 2.99-.23 5.97-.36 8.95-.04.83-.11 1.66-.17 2.48l-.76.3c-1.7-5-3.4-9.96-5.07-14.92-2.75-8.2-5.46-16.43-8.2-24.64l-6.7-19.87c-.11-.3-.42-.55-.63-.82l4.9-9c.17.29.39.56.5.87 2.26 6.7 4.52 13.41 6.76 20.12 2.92 8.73 5.82 17.47 8.73 26.2.12.35.31.67.5 1.06l.66-.78-.16 10.05z" clip-rule="evenodd"/><path fill="#4AA73C" fill-rule="evenodd" d="M43.16 32.23c.2.27.5.51.61.82 2.25 6.62 4.48 13.24 6.7 19.87 2.75 8.21 5.47 16.43 8.22 24.64 1.66 4.96 3.36 9.91 5.06 14.91l.76-.28-.17 2.42-.15.56c-.27 2.66-.5 5.32-.82 7.97-.16 1.33-.5 2.63-.77 3.95-.2-.3-.48-.55-.58-.87l-16.38-48.9c-1.74-5.19-3.48-10.37-5.24-15.55-.09-.26-.34-.47-.52-.7l3.27-8.84z" clip-rule="evenodd"/><path fill="#57AE47" fill-rule="evenodd" d="m65.2 70.7-.67.78c-.18-.39-.37-.71-.49-1.06-2.91-8.73-5.81-17.47-8.73-26.2-2.24-6.7-4.5-13.41-6.77-20.12-.1-.31-.32-.58-.5-.87l6.06-7.97c.2.26.47.48.57.77 1.68 4.92 3.34 9.85 5 14.78 1.55 4.6 3.07 9.21 4.63 13.81.11.3.47.53.72.79l.01 1.04.17 24.25z" clip-rule="evenodd"/><path fill="#60B24F" fill-rule="evenodd" d="M65.02 45.4c-.24-.26-.6-.47-.71-.78-1.57-4.6-3.1-9.21-4.64-13.81-1.66-4.93-3.32-9.86-5-14.78-.1-.29-.37-.52-.56-.77 1.97-1.93 3.87-3.93 5.92-5.77 1.82-1.63 3.29-3.38 3.35-5.96 0-.11.06-.22.15-.52l.52 1.3c-.02.67-.08 1.33-.03 1.99.07 1.14.26 2.28.3 3.42.1 2.13.15 4.26.2 6.39.06 3.43.13 6.85.17 10.28l.18 16.44c0 .86.1 1.71.15 2.57z" clip-rule="evenodd"/><path fill="#A9AA88" fill-rule="evenodd" d="M62.6 107.08c.26-1.31.6-2.62.77-3.94.33-2.65.55-5.31.81-7.97l.07-.01.07.01a41.4 41.4 0 0 0 1.39 9.84c-.18.23-.42.44-.52.7-.72 2.05-1.41 4.12-2.14 6.17-.1.28-.38.5-.57.74l-.75-2.57.87-2.97z" clip-rule="evenodd"/><path fill="#B6B598" fill-rule="evenodd" d="M62.48 112.62c.2-.25.47-.46.57-.74.73-2.05 1.42-4.12 2.14-6.17.1-.26.34-.47.52-.7l1.26 2.75c-.25.36-.6.67-.73 1.07l-2.4 7.05c-.1.29-.44.49-.67.73l-.7-3.99z" clip-rule="evenodd"/><path fill="#C2C1A7" fill-rule="evenodd" d="M63.17 116.6c.23-.23.56-.43.66-.72l2.4-7.06c.14-.39.49-.7.74-1.06l1.21 1.04c-.59.58-.91 1.25-.72 2.1l-.36 1.2c-.17.21-.42.4-.5.63-.84 2.4-1.64 4.82-2.48 7.22-.11.3-.4.54-.62.81l-.33-4.16z" clip-rule="evenodd"/><path fill="#CECDB7" fill-rule="evenodd" d="M63.5 120.76c.21-.27.5-.5.62-.8.84-2.41 1.64-4.83 2.48-7.23.09-.24.33-.42.5-.62l-.51 5.54c-.14.16-.34.3-.4.48-.58 1.61-1.12 3.24-1.7 4.85-.11.33-.34.63-.52.94-.16-.2-.44-.4-.45-.62-.05-.84-.02-1.7-.02-2.54z" clip-rule="evenodd"/><path fill="#DBDAC7" fill-rule="evenodd" d="M63.97 123.92c.18-.31.4-.6.52-.94.58-1.61 1.12-3.24 1.7-4.85.06-.19.26-.32.4-.48v3.64l-1.21 3.12-1.41-.5z" clip-rule="evenodd"/><path fill="#EBE9DC" fill-rule="evenodd" d="m65.38 124.42 1.22-3.13.25 3.7-1.47-.57z" clip-rule="evenodd"/><path fill="#CECDB7" fill-rule="evenodd" d="M67.46 110.9c-.2-.85.13-1.52.72-2.1l.34.23-1.06 1.87z" clip-rule="evenodd"/><path fill="#4FAA41" fill-rule="evenodd" d="M64.32 95.17h-.14l.16-.56-.02.56z" clip-rule="evenodd"/></svg>