<svg xmlns="http://www.w3.org/2000/svg" width="64" height="64" viewBox="0 0 16.93 16.93"><path fill="#ea2845" fill-rule="evenodd" d="M9.97.03c-.12 0-.24.03-.34.06.22.15.34.35.4.57l.02.08.01.08c.02.39-.1.44-.18.66a.9.9 0 0 0 .06.86.52.52 0 0 0 .05.1c-.16-1.1.76-1.27.93-1.62.01-.3-.24-.5-.43-.64a.97.97 0 0 0-.52-.15zm1.39.25c-.02.1 0 .08-.01.13l-.01.11-.03.1-.03.11-.05.1-.04.06-.02.04-.07.08-.08.08-.08.08-.3.19-.08.06a.64.64 0 0 0-.09.07l-.08.08a.42.42 0 0 0-.06.1l-.06.08-.05.1-.04.1-.02.11-.01.06-.01.05v.3c0 .04.02.07.03.1l.04.11.03.06-1.01-.39-.5-.13-.28-.06a8.12 8.12 0 0 0-.8-.12h-.02l-.78-.05-.58.03c-.26.01-.53.05-.8.1l-.2.03-.39.08-.2.06-.18.08-.15.07h-.02l-.12.07h-.03l-.14.08-.09.04-.04.02-.1.07a1.1 1.1 0 0 0-.11.07l-.1.06-.09.07-.07.06-.03.01-.06.06-.02.02-.08.07-.09.09-.07.08-.03.02a1.23 1.23 0 0 1-.08.08l-.01.02-.1.1-.24.23-.24.2-.27.16c-.08.05-.18.1-.27.13a3.15 3.15 0 0 1-.29.1c-.18.05-.37.12-.53.14H.92l-.11.03-.1.04a1.12 1.12 0 0 0-.11.05l-.1.06-.08.08c-.02.03-.06.05-.1.08l-.06.08-.07.1a.77.77 0 0 0-.06.1l-.05.12-.04.11-.02.1-.02.14v.09a.25.25 0 0 0 0 .05l.02.09.03.08.05.08.06.08.07.07a.64.64 0 0 0 .08.07c.1.1.13.12.27.2l.07.03.02.02.02.1a.59.59 0 0 0 .04.11l.03.08.01.02.06.1.06.1.08.08.08.07.09.07.1.05a.71.71 0 0 0 .1.05l.08.03.07.02c0 .24-.01.46.02.54.04.09.23-.18.43-.48-.03.3-.05.65 0 .76s.3-.24.53-.61a5.05 5.05 0 0 1 6.23 4.45c-.06-.47-.64-.74-.9-.67-.13.32-.36.74-.72 1 .03-.3.02-.59-.04-.88a2.83 2.83 0 0 1-.54 1.1c-.42.03-.83-.17-1.05-.47-.02-.01-.02-.04-.04-.06l-.03-.09-.03-.09v-.16l.02-.1.03-.09.05-.09c.08-.2.08-.38-.06-.48a.5.5 0 0 0-.08-.04l-.06-.02-.03-.01-.1-.03a.33.33 0 0 0-.09 0 .71.71 0 0 0-.1-.02h-.06a.34.34 0 0 0-.1.02l-.09.02-.09.03-.09.04-.08.04c-1.02.67-.41 2.22.28 2.67-.26.05-.53.1-.6.16.18.13.38.22.58.3l.71.2a4 4 0 0 0 1.1.09 4.16 4.16 0 0 0 3.82-3.55l.02.11.04.25.02.12.01.13.01.14v.42l-.01.1v.04l-.02.1v.04l-.02.13-.03.13-.02.13-.04.13-.03.14-.05.14-.1.25-.04.13-.06.12a4.17 4.17 0 0 1-1.25 1.51l-.11.08-.03.02-.1.07.02.02.19-.02.34-.06.1-.02.06-.02.09-.01.08-.03c.43-.1.86-.25 1.27-.42a7 7 0 0 1-2.72 2.22 6.99 6.99 0 0 0 5.62-3.56 6.98 6.98 0 0 1-1.17 2.81c.42-.28.8-.6 1.16-.97a6.93 6.93 0 0 0 1.85-3.71c.15.69.19 1.4.12 2.1 3.16-4.4.26-8.97-.95-10.17v-.02c-.02.05-.02.1-.02.16l-.05.29-.07.29c-.02.09-.07.19-.1.28s-.1.18-.14.27a2.98 2.98 0 0 1-.15.25l-.18.23a3.27 3.27 0 0 1-.21.22l-.13.11-.1.09a2.44 2.44 0 0 1-.24.17 3.03 3.03 0 0 1-.26.15l-.28.12a3.08 3.08 0 0 1-.28.1l-.3.06-.3.03-.2.01c-.1 0-.2 0-.29-.02l-.3-.04a2.21 2.21 0 0 1-.29-.07l.29-.04a4.47 4.47 0 0 0 .57-.16c.1-.03.2-.08.28-.12a3.06 3.06 0 0 0 .26-.14l.25-.18a2.39 2.39 0 0 0 .22-.2l.2-.2.19-.24.03-.05.12-.2a2.63 2.63 0 0 0 .24-.55l.07-.28a2.85 2.85 0 0 0 .02-1.08 3.2 3.2 0 0 0-.07-.3l-.1-.28a3.85 3.85 0 0 0-.27-.52 3.42 3.42 0 0 0-.17-.24l-.2-.23a2.73 2.73 0 0 0-.11-.1 8.05 8.05 0 0 0-.61-.43 1.18 1.18 0 0 0-.09-.05 1.6 1.6 0 0 0-.41-.18z"/></svg>